<svg width="32" height="32" viewBox="0 0 32 32" fill="none" xmlns="http://www.w3.org/2000/svg">
  <defs>
    <linearGradient id="bgGradient32" x1="0%" y1="0%" x2="100%" y2="100%">
      <stop offset="0%" style="stop-color:#0ea5e9"/>
      <stop offset="100%" style="stop-color:#0284c7"/>
    </linearGradient>
    <linearGradient id="bookGradient32" x1="0%" y1="0%" x2="100%" y2="100%">
      <stop offset="0%" style="stop-color:#ffffff"/>
      <stop offset="100%" style="stop-color:#f0f9ff"/>
    </linearGradient>
  </defs>
  
  <!-- Background -->
  <circle cx="16" cy="16" r="16" fill="url(#bgGradient32)"/>
  
  <!-- African sun -->
  <circle cx="24" cy="8" r="3" fill="#fbbf24"/>
  <g stroke="#fbbf24" stroke-width="0.5" stroke-linecap="round" opacity="0.8">
    <line x1="24" y1="4" x2="24" y2="5"/>
    <line x1="27.5" y1="8" x2="26.5" y2="8"/>
    <line x1="26.1" y1="5.9" x2="25.4" y2="6.6"/>
    <line x1="26.1" y1="10.1" x2="25.4" y2="9.4"/>
    <line x1="21.9" y1="5.9" x2="22.6" y2="6.6"/>
    <line x1="21.9" y1="10.1" x2="22.6" y2="9.4"/>
    <line x1="20.5" y1="8" x2="21.5" y2="8"/>
    <line x1="24" y1="11" x2="24" y2="12"/>
  </g>
  
  <!-- Open book -->
  <path d="M6 12 L16 12 L26 12 L26 24 L16 22 L6 24 Z" fill="url(#bookGradient32)" stroke="#0284c7" stroke-width="0.5"/>
  <path d="M16 12 L16 22" stroke="#0284c7" stroke-width="0.5"/>
  
  <!-- Book content lines -->
  <g stroke="#0284c7" stroke-width="0.3" opacity="0.6">
    <line x1="8" y1="15" x2="14" y2="15"/>
    <line x1="18" y1="15" x2="24" y2="15"/>
    <line x1="8" y1="17" x2="14" y2="17"/>
    <line x1="18" y1="17" x2="24" y2="17"/>
    <line x1="8" y1="19" x2="14" y2="19"/>
    <line x1="18" y1="19" x2="24" y2="19"/>
  </g>
  
  <!-- African landscape elements -->
  <path d="M4 26 Q4 24 5 23 Q6 22 7 23 Q8 22 9 23 Q10 24 10 26" fill="#065f46" opacity="0.3"/>
  <rect x="6.5" y="23" width="1" height="3" fill="#065f46" opacity="0.3"/>
  
  <path d="M28 26 Q28 25 28.5 24.5 Q29 24 29.5 24.5 Q30 25 30 26" fill="#065f46" opacity="0.3"/>
  <rect x="29" y="24.5" width="0.5" height="1.5" fill="#065f46" opacity="0.3"/>
</svg>