<svg width="32" height="32" viewBox="0 0 32 32" fill="none" xmlns="http://www.w3.org/2000/svg">
  <!-- Background circle with gradient -->
  <defs>
    <linearGradient id="bgGradient" x1="0%" y1="0%" x2="100%" y2="100%">
      <stop offset="0%" style="stop-color:#0ea5e9;stop-opacity:1" />
      <stop offset="100%" style="stop-color:#0284c7;stop-opacity:1" />
    </linearGradient>
    <linearGradient id="bookGradient" x1="0%" y1="0%" x2="100%" y2="100%">
      <stop offset="0%" style="stop-color:#ffffff;stop-opacity:1" />
      <stop offset="100%" style="stop-color:#f0f9ff;stop-opacity:1" />
    </linearGradient>
    <linearGradient id="sunGradient" x1="0%" y1="0%" x2="100%" y2="100%">
      <stop offset="0%" style="stop-color:#fbbf24;stop-opacity:1" />
      <stop offset="100%" style="stop-color:#f59e0b;stop-opacity:1" />
    </linearGradient>
  </defs>
  
  <!-- Main background -->
  <circle cx="16" cy="16" r="16" fill="url(#bgGradient)"/>
  
  <!-- African sun in top right -->
  <circle cx="24" cy="8" r="3" fill="url(#sunGradient)"/>
  <path d="M24 4 L24 5 M27.5 8 L26.5 8 M26.1 5.9 L25.4 6.6 M26.1 10.1 L25.4 9.4 M21.9 5.9 L22.6 6.6 M21.9 10.1 L22.6 9.4 M20.5 8 L21.5 8 M24 11 L24 12" stroke="#fbbf24" stroke-width="0.5" stroke-linecap="round"/>
  
  <!-- Open book -->
  <path d="M6 12 L16 12 L26 12 L26 24 L16 22 L6 24 Z" fill="url(#bookGradient)" stroke="#0284c7" stroke-width="0.5"/>
  <path d="M16 12 L16 22" stroke="#0284c7" stroke-width="0.5"/>
  
  <!-- Book pages lines -->
  <line x1="8" y1="15" x2="14" y2="15" stroke="#0284c7" stroke-width="0.3" opacity="0.6"/>
  <line x1="18" y1="15" x2="24" y2="15" stroke="#0284c7" stroke-width="0.3" opacity="0.6"/>
  <line x1="8" y1="17" x2="14" y2="17" stroke="#0284c7" stroke-width="0.3" opacity="0.6"/>
  <line x1="18" y1="17" x2="24" y2="17" stroke="#0284c7" stroke-width="0.3" opacity="0.6"/>
  <line x1="8" y1="19" x2="14" y2="19" stroke="#0284c7" stroke-width="0.3" opacity="0.6"/>
  <line x1="18" y1="19" x2="24" y2="19" stroke="#0284c7" stroke-width="0.3" opacity="0.6"/>
  
  <!-- African baobab tree silhouette -->
  <path d="M4 26 Q4 24 5 23 Q6 22 7 23 Q8 22 9 23 Q10 24 10 26" fill="#065f46" opacity="0.3"/>
  <rect x="6.5" y="23" width="1" height="3" fill="#065f46" opacity="0.3"/>
  
  <!-- Small acacia tree -->
  <path d="M28 26 Q28 25 28.5 24.5 Q29 24 29.5 24.5 Q30 25 30 26" fill="#065f46" opacity="0.3"/>
  <rect x="29" y="24.5" width="0.5" height="1.5" fill="#065f46" opacity="0.3"/>
</svg>