<svg width="512" height="512" viewBox="0 0 512 512" fill="none" xmlns="http://www.w3.org/2000/svg">
  <defs>
    <linearGradient id="bgGradient512" x1="0%" y1="0%" x2="100%" y2="100%">
      <stop offset="0%" style="stop-color:#0ea5e9"/>
      <stop offset="100%" style="stop-color:#0284c7"/>
    </linearGradient>
    <linearGradient id="bookGradient512" x1="0%" y1="0%" x2="100%" y2="100%">
      <stop offset="0%" style="stop-color:#ffffff"/>
      <stop offset="100%" style="stop-color:#f0f9ff"/>
    </linearGradient>
    <linearGradient id="sunGradient512" x1="0%" y1="0%" x2="100%" y2="100%">
      <stop offset="0%" style="stop-color:#fbbf24"/>
      <stop offset="100%" style="stop-color:#f59e0b"/>
    </linearGradient>
    <filter id="shadow" x="-20%" y="-20%" width="140%" height="140%">
      <feDropShadow dx="0" dy="4" stdDeviation="8" flood-color="#000000" flood-opacity="0.1"/>
    </filter>
  </defs>
  
  <!-- Background -->
  <circle cx="256" cy="256" r="256" fill="url(#bgGradient512)"/>
  
  <!-- African sun with rays -->
  <circle cx="384" cy="128" r="48" fill="url(#sunGradient512)" filter="url(#shadow)"/>
  <g stroke="#fbbf24" stroke-width="6" stroke-linecap="round" opacity="0.8">
    <line x1="384" y1="64" x2="384" y2="80"/>
    <line x1="448" y1="128" x2="432" y2="128"/>
    <line x1="418" y1="94" x2="406" y2="106"/>
    <line x1="418" y1="162" x2="406" y2="150"/>
    <line x1="350" y1="94" x2="362" y2="106"/>
    <line x1="350" y1="162" x2="362" y2="150"/>
    <line x1="320" y1="128" x2="336" y2="128"/>
    <line x1="384" y1="176" x2="384" y2="192"/>
  </g>
  
  <!-- Large open book with shadow -->
  <path d="M80 200 L256 200 L432 200 L432 400 L256 370 L80 400 Z" fill="url(#bookGradient512)" stroke="#0284c7" stroke-width="6" filter="url(#shadow)"/>
  <path d="M256 200 L256 370" stroke="#0284c7" stroke-width="6"/>
  
  <!-- Book content - left page -->
  <g stroke="#0284c7" stroke-width="3" opacity="0.6">
    <line x1="120" y1="240" x2="230" y2="240"/>
    <line x1="120" y1="260" x2="230" y2="260"/>
    <line x1="120" y1="280" x2="230" y2="280"/>
    <line x1="120" y1="300" x2="220" y2="300"/>
    <line x1="120" y1="320" x2="225" y2="320"/>
    <line x1="120" y1="340" x2="210" y2="340"/>
  </g>
  
  <!-- Book content - right page -->
  <g stroke="#0284c7" stroke-width="3" opacity="0.6">
    <line x1="282" y1="240" x2="392" y2="240"/>
    <line x1="282" y1="260" x2="392" y2="260"/>
    <line x1="282" y1="280" x2="392" y2="280"/>
    <line x1="282" y1="300" x2="382" y2="300"/>
    <line x1="282" y1="320" x2="387" y2="320"/>
    <line x1="282" y1="340" x2="372" y2="340"/>
  </g>
  
  <!-- African landscape - Baobab trees -->
  <path d="M60 420 Q60 400 80 390 Q100 380 120 390 Q140 380 160 390 Q180 400 180 420" fill="#065f46" opacity="0.4"/>
  <rect x="115" y="390" width="10" height="30" fill="#065f46" opacity="0.4"/>
  
  <path d="M400 420 Q400 410 410 405 Q420 402 430 405 Q440 410 440 420" fill="#065f46" opacity="0.4"/>
  <rect x="427" y="405" width="6" height="15" fill="#065f46" opacity="0.4"/>
  
  <!-- Acacia tree -->
  <path d="M320 430 Q320 420 330 415 Q340 412 350 415 Q360 420 360 430" fill="#065f46" opacity="0.3"/>
  <rect x="347" y="415" width="6" height="15" fill="#065f46" opacity="0.3"/>
  
  <!-- Decorative elements -->
  <circle cx="150" cy="150" r="4" fill="white" opacity="0.3"/>
  <circle cx="350" cy="420" r="3" fill="white" opacity="0.3"/>
  <circle cx="100" cy="320" r="2" fill="white" opacity="0.2"/>
  <circle cx="400" cy="300" r="2" fill="white" opacity="0.2"/>
  
  <!-- Subtle African pattern border -->
  <circle cx="80" cy="80" r="3" fill="white" opacity="0.2"/>
  <circle cx="432" cy="80" r="3" fill="white" opacity="0.2"/>
  <circle cx="80" cy="432" r="3" fill="white" opacity="0.2"/>
  <circle cx="432" cy="432" r="3" fill="white" opacity="0.2"/>
</svg>